<?xml version="1.0" encoding="UTF-8" standalone="no"?>
<svg
   xmlns:dc="http://purl.org/dc/elements/1.1/"
   xmlns:cc="http://creativecommons.org/ns#"
   xmlns:rdf="http://www.w3.org/1999/02/22-rdf-syntax-ns#"
   xmlns:svg="http://www.w3.org/2000/svg"
   xmlns="http://www.w3.org/2000/svg"
   viewBox="0 0 113.7875 102.925"
   height="102.925"
   width="113.7875"
   xml:space="preserve"
   version="1.1"
   id="svg2"><metadata
     id="metadata8"><rdf:RDF><cc:Work
         rdf:about=""><dc:format>image/svg+xml</dc:format><dc:type
           rdf:resource="http://purl.org/dc/dcmitype/StillImage" /><dc:title></dc:title></cc:Work></rdf:RDF></metadata><defs
     id="defs6" /><g
     transform="matrix(1.25,0,0,-1.25,0,102.925)"
     id="g10"><g
       transform="scale(0.1,0.1)"
       id="g12"><path
         id="path14"
         style="fill:#ffffff;fill-opacity:1;fill-rule:nonzero;stroke:none"
         d="m 910.238,394.555 c 0,0 0,0 0,0.008 -1.269,52.707 -21.164,97.957 -54.07,124.835 2.215,12.653 3.336,25.215 3.336,37.52 0,22.121 -3.328,44.137 -9.902,65.52 l 0,164.48 c 0,7.023 -2.95,13.719 -8.133,18.453 -5.188,4.738 -12.102,7.121 -19.114,6.445 l -20.8,-1.875 c -66.336,-5.976 -135.094,-10.308 -204.442,-12.871 -45.461,17.493 -93.183,26.352 -141.945,26.352 -48.75,0 -96.484,-8.859 -141.945,-26.352 -69.356,2.563 -138.118,6.895 -204.453,12.871 l -20.7973,1.875 c -7.0235,0.657 -13.9297,-1.707 -19.1133,-6.445 -5.1797,-4.734 -8.1328,-11.43 -8.1328,-18.453 l 0,-164.473 c -6.5782,-21.386 -9.9063,-43.414 -9.9063,-65.527 0,-12.305 1.1172,-24.867 3.3399,-37.523 C 21.25,492.516 1.35938,447.266 0.0859375,394.555 -3.09766,261.895 82.7227,138.273 86.3789,133.074 c 5.5078,-7.832 14.9921,-11.847 24.4451,-10.297 9.449,1.532 17.192,8.317 19.946,17.481 3.507,11.66 8.921,23.785 15.921,36.961 C 221.844,84.1953 334.5,29.707 455.168,29.707 c 120.664,0 233.32,54.4961 308.457,147.512 7.012,-13.18 12.434,-25.305 15.93,-36.961 2.754,-9.164 10.508,-15.949 19.949,-17.481 9.523,-1.55 18.945,2.477 24.445,10.297 3.653,5.199 89.481,128.821 86.289,261.481" /><path
         id="path16"
         style="fill:#39286c;fill-opacity:1;fill-rule:nonzero;stroke:none"
         d="m 106.781,147.453 c 0,0 -84.7693,120.559 -81.7458,246.5 C 28.0742,519.898 144.93,562.547 197.41,468.551 265.797,345.992 135.059,241.523 106.781,147.453" /><path
         id="path18"
         style="fill:#39286c;fill-opacity:1;fill-rule:nonzero;stroke:none"
         d="m 803.453,147.453 c 0,0 84.774,120.559 81.75,246.5 -3.039,125.945 -119.898,168.594 -172.379,74.598 -68.383,-122.559 62.356,-227.028 90.629,-321.098" /><path
         id="path20"
         style="fill:#53399d;fill-opacity:1;fill-rule:nonzero;stroke:none"
         d="M 802.758,426.566 C 802.758,234.57 647.113,78.9258 455.117,78.9258 263.121,78.9258 107.48,234.57 107.48,426.566 c 0,191.997 155.641,347.637 347.637,347.637 191.996,0 347.641,-155.64 347.641,-347.637" /><path
         id="path22"
         style="fill:#39286c;fill-opacity:1;fill-rule:nonzero;stroke:none"
         d="m 455.121,92.1875 c -184.379,0 -334.379,150.0005 -334.379,334.3785 0,184.375 150,334.375 334.379,334.375 184.375,0 334.375,-150 334.375,-334.375 0,-184.378 -150,-334.3785 -334.375,-334.3785 z m 332.82,499.9535 36.614,0 0,194.777 -20.793,-1.875 c -70.09,-6.316 -140.481,-10.629 -210.985,-13.145 -42.609,17.047 -89.035,26.524 -137.656,26.524 -48.625,0 -95.051,-9.477 -137.66,-26.524 -70.504,2.516 -140.895,6.829 -210.984,13.145 l -20.7973,1.875 0,-194.777 36.6173,0 C 97.3672,542.242 83.2617,486.035 83.2617,426.566 83.2617,221.523 250.078,54.707 455.121,54.707 c 205.039,0 371.856,166.816 371.856,371.859 0,59.469 -14.11,115.676 -39.036,165.575" /><path
         id="path24"
         style="fill:#ffffff;fill-opacity:1;fill-rule:nonzero;stroke:none"
         d="m 274.648,718.305 c -88.996,0 -161.394,-72.399 -161.394,-161.387 0,-88.992 72.398,-161.391 161.394,-161.391 88.989,0 161.391,72.399 161.391,161.391 0,88.988 -72.402,161.387 -161.391,161.387" /><path
         id="path26"
         style="fill:#ffffff;fill-opacity:1;fill-rule:nonzero;stroke:none"
         d="m 635.59,718.305 c -88.996,0 -161.387,-72.399 -161.387,-161.387 0,-88.992 72.391,-161.391 161.387,-161.391 88.996,0 161.387,72.399 161.387,161.391 0,88.988 -72.391,161.387 -161.387,161.387" /><path
         id="path28"
         style="fill:#f2572b;fill-opacity:1;fill-rule:nonzero;stroke:none"
         d="m 455.121,473.895 c -15.859,-34.332 -41.191,-63.411 -72.617,-83.86 l 72.687,-72.691 72.637,72.636 c -31.469,20.45 -56.836,49.551 -72.707,83.915" /><path
         id="path30"
         style="fill:#f2572b;fill-opacity:1;fill-rule:nonzero;stroke:none"
         d="m 296.453,106.23 c 0,6.672 -5.43,12.098 -12.098,12.098 l -7.562,0 c -6.672,0 -12.102,-5.426 -12.102,-12.098 l 0,-84.1284 C 264.691,15.4297 270.121,10 276.793,10 l 7.562,0 c 6.668,0 12.098,5.4297 12.098,12.1016 l 0,84.1284" /><path
         id="path32"
         style="fill:#f2572b;fill-opacity:1;fill-rule:nonzero;stroke:none"
         d="M 181.16,22.1016 C 181.16,15.4297 186.59,10 193.262,10 l 7.562,0 c 6.668,0 12.098,5.4297 12.098,12.1016 l 0,84.1284 c 0,6.672 -5.43,12.098 -12.098,12.098 l -7.562,0 c -6.672,0 -12.102,-5.426 -12.102,-12.098 l 0,-84.1284" /><path
         id="path34"
         style="fill:#f2572b;fill-opacity:1;fill-rule:nonzero;stroke:none"
         d="m 242.59,118.328 -7.567,0 c -6.671,0 -12.101,-5.426 -12.101,-12.098 l 0,-84.1284 C 222.922,15.4297 228.352,10 235.023,10 l 7.567,0 c 6.672,0 12.101,5.4297 12.101,12.1016 l 0,84.1284 c 0,6.672 -5.429,12.098 -12.101,12.098" /><path
         id="path36"
         style="fill:#040606;fill-opacity:1;fill-rule:nonzero;stroke:none"
         d="m 260.98,538.965 c -14.496,0 -26.292,11.797 -26.292,26.293 0,14.5 11.796,26.289 26.292,26.289 14.497,0 26.29,-11.789 26.29,-26.289 0,-14.496 -11.793,-26.293 -26.29,-26.293 z m 13.668,85.625 c -37.316,0 -67.671,-30.356 -67.671,-67.672 0,-37.313 30.355,-67.676 67.671,-67.676 37.313,0 67.668,30.363 67.668,67.676 0,37.316 -30.355,67.672 -67.668,67.672" /><path
         id="path38"
         style="fill:#040606;fill-opacity:1;fill-rule:nonzero;stroke:none"
         d="m 649.262,538.965 c -14.504,0 -26.301,11.797 -26.301,26.293 0,14.5 11.797,26.289 26.301,26.289 14.492,0 26.289,-11.789 26.289,-26.289 0,-14.496 -11.797,-26.293 -26.289,-26.293 z M 635.59,624.59 c -37.317,0 -67.676,-30.356 -67.676,-67.672 0,-37.313 30.359,-67.676 67.676,-67.676 37.312,0 67.676,30.363 67.676,67.676 0,37.316 -30.364,67.672 -67.676,67.672" /><path
         id="path40"
         style="fill:#a87fc7;fill-opacity:1;fill-rule:nonzero;stroke:none"
         d="m 635.59,395.527 c -88.996,0 -161.387,72.399 -161.387,161.391 0,88.988 72.391,161.387 161.387,161.387 88.996,0 161.387,-72.399 161.387,-161.387 0,-88.992 -72.391,-161.391 -161.387,-161.391 z m -360.942,0 c -88.996,0 -161.394,72.399 -161.394,161.391 0,88.988 72.398,161.387 161.394,161.387 88.989,0 161.391,-72.399 161.391,-161.387 0,-88.992 -72.402,-161.391 -161.391,-161.391 z M 635.59,755.785 c -80,0 -148.934,-47.582 -180.469,-115.844 -31.539,68.262 -100.476,115.844 -180.473,115.844 -109.66,0 -198.8746,-89.215 -198.8746,-198.867 0,-109.656 89.2146,-198.871 198.8746,-198.871 79.997,0 148.934,47.586 180.473,115.848 31.535,-68.262 100.469,-115.848 180.469,-115.848 109.66,0 198.867,89.215 198.867,198.871 0,109.652 -89.207,198.867 -198.867,198.867" /><path
         id="path42"
         style="fill:#ffffff;fill-opacity:1;fill-rule:nonzero;stroke:none"
         d="M 296.453,22.1016 C 296.453,15.4297 291.023,10 284.355,10 l -7.562,0 c -6.672,0 -12.102,5.4297 -12.102,12.1016 l 0,84.1284 c 0,6.672 5.43,12.098 12.102,12.098 l 7.562,0 c 6.668,0 12.098,-5.426 12.098,-12.098 l 0,-84.1284 z M 242.59,10 l -7.567,0 c -6.671,0 -12.101,5.4297 -12.101,12.1016 l 0,84.1284 c 0,6.672 5.43,12.098 12.101,12.098 l 7.567,0 c 6.672,0 12.101,-5.426 12.101,-12.098 l 0,-84.1284 C 254.691,15.4297 249.262,10 242.59,10 Z m -41.766,0 -7.562,0 c -6.672,0 -12.102,5.4297 -12.102,12.1016 l 0,84.1284 c 0,6.672 5.43,12.098 12.102,12.098 l 7.562,0 c 6.668,0 12.098,-5.426 12.098,-12.098 l 0,-84.1284 C 212.922,15.4297 207.492,10 200.824,10 Z m 83.531,118.328 -7.562,0 c -6.93,0 -13.047,-3.265 -17.102,-8.269 -4.054,5.004 -10.171,8.269 -17.101,8.269 l -7.567,0 c -6.929,0 -13.046,-3.265 -17.101,-8.269 -4.055,5.004 -10.168,8.269 -17.098,8.269 l -7.562,0 c -12.188,0 -22.102,-9.91 -22.102,-22.098 l 0,-84.1284 C 171.16,9.91016 181.074,0 193.262,0 l 7.562,0 c 6.93,0 13.043,3.26953 17.098,8.27344 C 221.977,3.26953 228.094,0 235.023,0 l 7.567,0 c 6.93,0 13.047,3.26953 17.101,8.27344 C 263.746,3.26953 269.863,0 276.793,0 l 7.562,0 c 12.188,0 22.098,9.91016 22.098,22.1016 l 0,84.1284 c 0,12.188 -9.91,22.098 -22.098,22.098" /><path
         id="path44"
         style="fill:#f2572b;fill-opacity:1;fill-rule:nonzero;stroke:none"
         d="m 729.074,106.23 c 0,6.672 -5.429,12.098 -12.097,12.098 l -7.563,0 c -6.672,0 -12.101,-5.426 -12.101,-12.098 l 0,-84.1284 C 697.313,15.4297 702.742,10 709.414,10 l 7.563,0 c 6.668,0 12.097,5.4297 12.097,12.1016 l 0,84.1284" /><path
         id="path46"
         style="fill:#f2572b;fill-opacity:1;fill-rule:nonzero;stroke:none"
         d="M 613.781,22.1016 C 613.781,15.4297 619.211,10 625.883,10 l 7.562,0 c 6.672,0 12.102,5.4297 12.102,12.1016 l 0,84.1284 c 0,6.672 -5.43,12.098 -12.102,12.098 l -7.562,0 c -6.672,0 -12.102,-5.426 -12.102,-12.098 l 0,-84.1284" /><path
         id="path48"
         style="fill:#f2572b;fill-opacity:1;fill-rule:nonzero;stroke:none"
         d="m 675.215,118.328 -7.57,0 c -6.668,0 -12.098,-5.426 -12.098,-12.098 l 0,-84.1284 C 655.547,15.4297 660.977,10 667.645,10 l 7.57,0 c 6.668,0 12.098,5.4297 12.098,12.1016 l 0,84.1284 c 0,6.672 -5.43,12.098 -12.098,12.098" /><path
         id="path50"
         style="fill:#ffffff;fill-opacity:1;fill-rule:nonzero;stroke:none"
         d="M 729.074,22.1016 C 729.074,15.4297 723.645,10 716.977,10 l -7.563,0 c -6.672,0 -12.101,5.4297 -12.101,12.1016 l 0,84.1284 c 0,6.672 5.429,12.098 12.101,12.098 l 7.563,0 c 6.668,0 12.097,-5.426 12.097,-12.098 l 0,-84.1284 z M 675.215,10 l -7.57,0 c -6.668,0 -12.098,5.4297 -12.098,12.1016 l 0,84.1284 c 0,6.672 5.43,12.098 12.098,12.098 l 7.57,0 c 6.668,0 12.098,-5.426 12.098,-12.098 l 0,-84.1284 C 687.313,15.4297 681.883,10 675.215,10 Z m -41.77,0 -7.562,0 c -6.672,0 -12.102,5.4297 -12.102,12.1016 l 0,84.1284 c 0,6.672 5.43,12.098 12.102,12.098 l 7.562,0 c 6.672,0 12.102,-5.426 12.102,-12.098 l 0,-84.1284 C 645.547,15.4297 640.117,10 633.445,10 Z m 83.532,118.328 -7.563,0 c -6.93,0 -13.047,-3.265 -17.101,-8.269 -4.055,5.004 -10.172,8.269 -17.098,8.269 l -7.57,0 c -6.926,0 -13.043,-3.265 -17.098,-8.269 -4.055,5.004 -10.172,8.269 -17.102,8.269 l -7.562,0 c -12.188,0 -22.102,-9.91 -22.102,-22.098 l 0,-84.1284 C 603.781,9.91016 613.695,0 625.883,0 l 7.562,0 c 6.93,0 13.047,3.26953 17.102,8.27344 C 654.602,3.26953 660.719,0 667.645,0 l 7.57,0 c 6.926,0 13.043,3.26953 17.098,8.27344 C 696.367,3.26953 702.484,0 709.414,0 l 7.563,0 c 12.187,0 22.097,9.91016 22.097,22.1016 l 0,84.1284 c 0,12.188 -9.91,22.098 -22.097,22.098" /></g></g></svg>